<?xml version="1.0" encoding="utf-8"?>
<!-- Generator: Adobe Illustrator 22.1.0, SVG Export Plug-In . SVG Version: 6.00 Build 0)  -->
<svg version="1.1" id="Layer_1" xmlns="http://www.w3.org/2000/svg" xmlns:xlink="http://www.w3.org/1999/xlink" x="0px" y="0px"
	 viewBox="0 0 700 500" style="enable-background:new 0 0 700 500;" xml:space="preserve">
<style type="text/css">
	.st0{opacity:0.75;fill:#0B80E0;stroke:#1E1E1E;stroke-width:0.5;stroke-miterlimit:10;}
	.st1{opacity:0.75;fill:#6D6D6D;stroke:#1E1E1E;stroke-width:0.5;stroke-miterlimit:10;}
	.st2{opacity:0.75;fill:#C1E53E;stroke:#1E1E1E;stroke-width:0.5;stroke-miterlimit:10;}
	.st3{opacity:0.75;fill:#F40B0B;stroke:#1E1E1E;stroke-width:0.5;stroke-miterlimit:10;}
	.st4{opacity:0.75;fill:#FF9D00;stroke:#1E1E1E;stroke-width:0.5;stroke-miterlimit:10;}
	.st5{opacity:0.75;fill:#A33EE5;stroke:#1E1E1E;stroke-width:0.5;stroke-miterlimit:10;}
	.st6{opacity:0.75;fill:#3ED5E5;stroke:#1E1E1E;stroke-width:0.5;stroke-miterlimit:10;}
	.st7{opacity:0.75;fill:#F7219C;stroke:#1E1E1E;stroke-width:0.5;stroke-miterlimit:10;}
	.st8{opacity:0.75;fill:#F7DFDF;stroke:#1E1E1E;stroke-width:0.5;stroke-miterlimit:10;}
	.st9{opacity:0.75;fill:#085EF7;stroke:#1E1E1E;stroke-width:0.5;stroke-miterlimit:10;}
	.st10{opacity:0.75;fill:#80E53E;stroke:#1E1E1E;stroke-width:0.5;stroke-miterlimit:10;}
	.st11{opacity:0.75;fill:#FFFF00;stroke:#1E1E1E;stroke-width:0.5;stroke-miterlimit:10;}
</style>
<g id="Nova_Scotia">
	<polygon class="st0" points="611.9,380.5 600.3,380.5 594.5,390.5 600.3,400.5 611.9,400.5 617.6,390.5 	"/>
	<polygon class="st0" points="611.9,360.5 600.3,360.5 594.5,370.5 600.3,380.5 611.9,380.5 617.6,370.5 	"/>
	<polygon class="st0" points="594.6,390.5 583,390.5 577.2,400.5 583,410.5 594.6,410.5 600.3,400.5 	"/>
	<polygon class="st0" points="594.6,370.5 583,370.5 577.2,380.5 583,390.5 594.6,390.5 600.3,380.5 	"/>
</g>
<g id="New_Brunswick">
	<polygon class="st1" points="577.3,400.5 565.7,400.5 559.9,410.5 565.7,420.5 577.3,420.5 583,410.5 	"/>
	<polygon class="st1" points="577.3,380.5 565.7,380.5 559.9,390.5 565.7,400.5 577.3,400.5 583,390.5 	"/>
	<polygon class="st1" points="560,410.5 548.4,410.5 542.6,420.5 548.4,430.5 560,430.5 565.7,420.5 	"/>
	<polygon class="st1" points="560,390.5 548.4,390.5 542.6,400.5 548.4,410.5 560,410.5 565.7,400.5 	"/>
	<polygon class="st1" points="560,370.5 548.4,370.5 542.6,380.5 548.4,390.5 560,390.5 565.7,380.5 	"/>
	<polygon class="st1" points="542.7,400.5 531.1,400.5 525.3,410.5 531.1,420.5 542.7,420.5 548.4,410.5 	"/>
	<polygon class="st1" points="542.7,380.5 531.1,380.5 525.3,390.5 531.1,400.5 542.7,400.5 548.4,390.5 	"/>
	<polygon class="st1" points="542.7,360.5 531.1,360.5 525.3,370.5 531.1,380.5 542.7,380.5 548.4,370.5 	"/>
</g>
<g id="Newfoundland_and_Labrador">
	<polygon class="st2" points="629.2,330.5 617.6,330.5 611.8,340.5 617.6,350.5 629.2,350.5 634.9,340.5 	"/>
	<polygon class="st2" points="629.2,310.5 617.6,310.5 611.8,320.5 617.6,330.5 629.2,330.5 634.9,320.5 	"/>
	<polygon class="st2" points="629.2,290.5 617.6,290.5 611.8,300.5 617.6,310.5 629.2,310.5 634.9,300.5 	"/>
	<polygon class="st2" points="611.9,320.5 600.3,320.5 594.5,330.5 600.3,340.5 611.9,340.5 617.6,330.5 	"/>
	<polygon class="st2" points="611.9,300.5 600.3,300.5 594.5,310.5 600.3,320.5 611.9,320.5 617.6,310.5 	"/>
	<polygon class="st2" points="611.9,280.5 600.3,280.5 594.5,290.5 600.3,300.5 611.9,300.5 617.6,290.5 	"/>
	<polygon class="st2" points="594.6,310.5 583,310.5 577.2,320.5 583,330.5 594.6,330.5 600.3,320.5 	"/>
	<polygon class="st2" points="594.6,290.5 583,290.5 577.2,300.5 583,310.5 594.6,310.5 600.3,300.5 	"/>
	<polygon class="st2" points="594.6,270.5 583,270.5 577.2,280.5 583,290.5 594.6,290.5 600.3,280.5 	"/>
	<polygon class="st2" points="577.3,300.5 565.7,300.5 559.9,310.5 565.7,320.5 577.3,320.5 583,310.5 	"/>
	<polygon class="st2" points="577.3,280.5 565.7,280.5 559.9,290.5 565.7,300.5 577.3,300.5 583,290.5 	"/>
	<polygon class="st2" points="577.3,260.5 565.7,260.5 559.9,270.5 565.7,280.5 577.3,280.5 583,270.5 	"/>
	<polygon class="st2" points="560,290.5 548.4,290.5 542.6,300.5 548.4,310.5 560,310.5 565.7,300.5 	"/>
	<polygon class="st2" points="560,270.5 548.4,270.5 542.6,280.5 548.4,290.5 560,290.5 565.7,280.5 	"/>
	<polygon class="st2" points="560,250.5 548.4,250.5 542.6,260.5 548.4,270.5 560,270.5 565.7,260.5 	"/>
	<polygon class="st2" points="542.7,300.5 531.1,300.5 525.3,310.5 531.1,320.5 542.7,320.5 548.4,310.5 	"/>
	<polygon class="st2" points="542.7,280.5 531.1,280.5 525.3,290.5 531.1,300.5 542.7,300.5 548.4,290.5 	"/>
	<polygon class="st2" points="542.7,260.5 531.1,260.5 525.3,270.5 531.1,280.5 542.7,280.5 548.4,270.5 	"/>
	<polygon class="st2" points="542.7,240.5 531.1,240.5 525.3,250.5 531.1,260.5 542.7,260.5 548.4,250.5 	"/>
	<polygon class="st2" points="525.4,310.5 513.8,310.5 508,320.5 513.8,330.5 525.4,330.5 531.1,320.5 	"/>
	<polygon class="st2" points="525.4,290.5 513.8,290.5 508,300.5 513.8,310.5 525.4,310.5 531.1,300.5 	"/>
	<polygon class="st2" points="525.4,250.5 513.8,250.5 508,260.5 513.8,270.5 525.4,270.5 531.1,260.5 	"/>
</g>
<g id="Quebec">
	<polygon class="st3" points="577.3,320.5 565.7,320.5 559.9,330.5 565.7,340.5 577.3,340.5 583,330.5 	"/>
	<polygon class="st3" points="560,330.5 548.4,330.5 542.6,340.5 548.4,350.5 560,350.5 565.7,340.5 	"/>
	<polygon class="st3" points="560,310.5 548.4,310.5 542.6,320.5 548.4,330.5 560,330.5 565.7,320.5 	"/>
	<polygon class="st3" points="542.7,340.5 531.1,340.5 525.3,350.5 531.1,360.5 542.7,360.5 548.4,350.5 	"/>
	<polygon class="st3" points="542.7,320.5 531.1,320.5 525.3,330.5 531.1,340.5 542.7,340.5 548.4,330.5 	"/>
	<polygon class="st3" points="525.4,410.5 513.8,410.5 508,420.5 513.8,430.5 525.4,430.5 531.1,420.5 	"/>
	<polygon class="st3" points="525.4,390.5 513.8,390.5 508,400.5 513.8,410.5 525.4,410.5 531.1,400.5 	"/>
	<polygon class="st3" points="525.4,370.5 513.8,370.5 508,380.5 513.8,390.5 525.4,390.5 531.1,380.5 	"/>
	<polygon class="st3" points="525.4,350.5 513.8,350.5 508,360.5 513.8,370.5 525.4,370.5 531.1,360.5 	"/>
	<polygon class="st3" points="525.4,330.5 513.8,330.5 508,340.5 513.8,350.5 525.4,350.5 531.1,340.5 	"/>
	<polygon class="st3" points="525.4,270.5 513.8,270.5 508,280.5 513.8,290.5 525.4,290.5 531.1,280.5 	"/>
	<polygon class="st3" points="508.1,420.5 496.5,420.5 490.7,430.5 496.5,440.5 508.1,440.5 513.8,430.5 	"/>
	<polygon class="st3" points="508.1,400.5 496.5,400.5 490.7,410.5 496.5,420.5 508.1,420.5 513.8,410.5 	"/>
	<polygon class="st3" points="508.1,380.5 496.5,380.5 490.7,390.5 496.5,400.5 508.1,400.5 513.8,390.5 	"/>
	<polygon class="st3" points="508.1,360.5 496.5,360.5 490.7,370.5 496.5,380.5 508.1,380.5 513.8,370.5 	"/>
	<polygon class="st3" points="508.1,340.5 496.5,340.5 490.7,350.5 496.5,360.5 508.1,360.5 513.8,350.5 	"/>
	<polygon class="st3" points="508.1,320.5 496.5,320.5 490.7,330.5 496.5,340.5 508.1,340.5 513.8,330.5 	"/>
	<polygon class="st3" points="508.1,300.5 496.5,300.5 490.7,310.5 496.5,320.5 508.1,320.5 513.8,310.5 	"/>
	<polygon class="st3" points="508.1,280.5 496.5,280.5 490.7,290.5 496.5,300.5 508.1,300.5 513.8,290.5 	"/>
	<polygon class="st3" points="508.1,260.5 496.5,260.5 490.7,270.5 496.5,280.5 508.1,280.5 513.8,270.5 	"/>
	<polygon class="st3" points="490.8,410.5 479.2,410.5 473.4,420.5 479.2,430.5 490.8,430.5 496.5,420.5 	"/>
	<polygon class="st3" points="490.8,390.5 479.2,390.5 473.4,400.5 479.2,410.5 490.8,410.5 496.5,400.5 	"/>
	<polygon class="st3" points="490.8,370.5 479.2,370.5 473.4,380.5 479.2,390.5 490.8,390.5 496.5,380.5 	"/>
	<polygon class="st3" points="490.8,350.5 479.2,350.5 473.4,360.5 479.2,370.5 490.8,370.5 496.5,360.5 	"/>
	<polygon class="st3" points="490.8,330.5 479.2,330.5 473.4,340.5 479.2,350.5 490.8,350.5 496.5,340.5 	"/>
	<polygon class="st3" points="490.8,310.5 479.2,310.5 473.4,320.5 479.2,330.5 490.8,330.5 496.5,320.5 	"/>
	<polygon class="st3" points="490.8,290.5 479.2,290.5 473.4,300.5 479.2,310.5 490.8,310.5 496.5,300.5 	"/>
	<polygon class="st3" points="490.8,270.5 479.2,270.5 473.4,280.5 479.2,290.5 490.8,290.5 496.5,280.5 	"/>
	<polygon class="st3" points="490.8,250.5 479.2,250.5 473.4,260.5 479.2,270.5 490.8,270.5 496.5,260.5 	"/>
	<polygon class="st3" points="473.5,400.5 461.9,400.5 456.1,410.5 461.9,420.5 473.5,420.5 479.2,410.5 	"/>
	<polygon class="st3" points="473.5,380.5 461.9,380.5 456.1,390.5 461.9,400.5 473.5,400.5 479.2,390.5 	"/>
	<polygon class="st3" points="473.5,360.5 461.9,360.5 456.1,370.5 461.9,380.5 473.5,380.5 479.2,370.5 	"/>
	<polygon class="st3" points="473.5,340.5 461.9,340.5 456.1,350.5 461.9,360.5 473.5,360.5 479.2,350.5 	"/>
	<polygon class="st3" points="473.5,320.5 461.9,320.5 456.1,330.5 461.9,340.5 473.5,340.5 479.2,330.5 	"/>
	<polygon class="st3" points="473.5,300.5 461.9,300.5 456.1,310.5 461.9,320.5 473.5,320.5 479.2,310.5 	"/>
	<polygon class="st3" points="473.5,280.5 461.9,280.5 456.1,290.5 461.9,300.5 473.5,300.5 479.2,290.5 	"/>
	<polygon class="st3" points="473.5,260.5 461.9,260.5 456.1,270.5 461.9,280.5 473.5,280.5 479.2,270.5 	"/>
	<polygon class="st3" points="473.5,240.5 461.9,240.5 456.1,250.5 461.9,260.5 473.5,260.5 479.2,250.5 	"/>
	<polygon class="st3" points="456.2,370.5 444.6,370.5 438.8,380.5 444.6,390.5 456.2,390.5 461.9,380.5 	"/>
	<polygon class="st3" points="456.2,350.5 444.6,350.5 438.8,360.5 444.6,370.5 456.2,370.5 461.9,360.5 	"/>
	<polygon class="st3" points="456.2,330.5 444.6,330.5 438.8,340.5 444.6,350.5 456.2,350.5 461.9,340.5 	"/>
	<polygon class="st3" points="456.2,310.5 444.6,310.5 438.8,320.5 444.6,330.5 456.2,330.5 461.9,320.5 	"/>
	<polygon class="st3" points="456.2,290.5 444.6,290.5 438.8,300.5 444.6,310.5 456.2,310.5 461.9,300.5 	"/>
	<polygon class="st3" points="456.2,270.5 444.6,270.5 438.8,280.5 444.6,290.5 456.2,290.5 461.9,280.5 	"/>
	<polygon class="st3" points="456.2,250.5 444.6,250.5 438.8,260.5 444.6,270.5 456.2,270.5 461.9,260.5 	"/>
	<polygon class="st3" points="438.9,300.5 427.3,300.5 421.5,310.5 427.3,320.5 438.9,320.5 444.6,310.5 	"/>
	<polygon class="st3" points="438.9,280.5 427.3,280.5 421.5,290.5 427.3,300.5 438.9,300.5 444.6,290.5 	"/>
	<polygon class="st3" points="438.9,260.5 427.3,260.5 421.5,270.5 427.3,280.5 438.9,280.5 444.6,270.5 	"/>
</g>
<g id="Ontario">
	<polygon class="st4" points="490.8,430.5 479.2,430.5 473.4,440.5 479.2,450.5 490.8,450.5 496.5,440.5 	"/>
	<polygon class="st4" points="473.5,440.5 461.9,440.5 456.1,450.5 461.9,460.5 473.5,460.5 479.2,450.5 	"/>
	<polygon class="st4" points="473.5,420.5 461.9,420.5 456.1,430.5 461.9,440.5 473.5,440.5 479.2,430.5 	"/>
	<polygon class="st4" points="456.2,430.5 444.6,430.5 438.8,440.5 444.6,450.5 456.2,450.5 461.9,440.5 	"/>
	<polygon class="st4" points="456.2,410.5 444.6,410.5 438.8,420.5 444.6,430.5 456.2,430.5 461.9,420.5 	"/>
	<polygon class="st4" points="456.2,390.5 444.6,390.5 438.8,400.5 444.6,410.5 456.2,410.5 461.9,400.5 	"/>
	<polygon class="st4" points="438.9,440.5 427.3,440.5 421.5,450.5 427.3,460.5 438.9,460.5 444.6,450.5 	"/>
	<polygon class="st4" points="438.9,420.5 427.3,420.5 421.5,430.5 427.3,440.5 438.9,440.5 444.6,430.5 	"/>
	<polygon class="st4" points="438.9,400.5 427.3,400.5 421.5,410.5 427.3,420.5 438.9,420.5 444.6,410.5 	"/>
	<polygon class="st4" points="438.9,380.5 427.3,380.5 421.5,390.5 427.3,400.5 438.9,400.5 444.6,390.5 	"/>
	<polygon class="st4" points="438.9,360.5 427.3,360.5 421.5,370.5 427.3,380.5 438.9,380.5 444.6,370.5 	"/>
	<polygon class="st4" points="421.6,390.5 410,390.5 404.2,400.5 410,410.5 421.6,410.5 427.3,400.5 	"/>
	<polygon class="st4" points="421.6,370.5 410,370.5 404.2,380.5 410,390.5 421.6,390.5 427.3,380.5 	"/>
	<polygon class="st4" points="421.6,350.5 410,350.5 404.2,360.5 410,370.5 421.6,370.5 427.3,360.5 	"/>
	<polygon class="st4" points="421.6,330.5 410,330.5 404.2,340.5 410,350.5 421.6,350.5 427.3,340.5 	"/>
	<polygon class="st4" points="404.3,380.5 392.7,380.5 386.9,390.5 392.7,400.5 404.3,400.5 410,390.5 	"/>
	<polygon class="st4" points="404.3,360.5 392.7,360.5 386.9,370.5 392.7,380.5 404.3,380.5 410,370.5 	"/>
	<polygon class="st4" points="404.3,340.5 392.7,340.5 386.9,350.5 392.7,360.5 404.3,360.5 410,350.5 	"/>
	<polygon class="st4" points="404.3,320.5 392.7,320.5 386.9,330.5 392.7,340.5 404.3,340.5 410,330.5 	"/>
	<polygon class="st4" points="387,390.5 375.4,390.5 369.6,400.5 375.4,410.5 387,410.5 392.7,400.5 	"/>
	<polygon class="st4" points="387,370.5 375.4,370.5 369.6,380.5 375.4,390.5 387,390.5 392.7,380.5 	"/>
	<polygon class="st4" points="387,350.5 375.4,350.5 369.6,360.5 375.4,370.5 387,370.5 392.7,360.5 	"/>
	<polygon class="st4" points="387,330.5 375.4,330.5 369.6,340.5 375.4,350.5 387,350.5 392.7,340.5 	"/>
	<polygon class="st4" points="369.7,400.5 358.1,400.5 352.3,410.5 358.1,420.5 369.7,420.5 375.4,410.5 	"/>
	<polygon class="st4" points="369.7,380.5 358.1,380.5 352.3,390.5 358.1,400.5 369.7,400.5 375.4,390.5 	"/>
	<polygon class="st4" points="369.7,360.5 358.1,360.5 352.3,370.5 358.1,380.5 369.7,380.5 375.4,370.5 	"/>
	<polygon class="st4" points="369.7,340.5 358.1,340.5 352.3,350.5 358.1,360.5 369.7,360.5 375.4,350.5 	"/>
	<polygon class="st4" points="352.4,370.5 340.8,370.5 335,380.5 340.8,390.5 352.4,390.5 358.1,380.5 	"/>
	<polygon class="st4" points="352.4,350.5 340.8,350.5 335,360.5 340.8,370.5 352.4,370.5 358.1,360.5 	"/>
</g>
<g id="Manitoba">
	<polygon class="st5" points="369.7,320.5 358.1,320.5 352.3,330.5 358.1,340.5 369.7,340.5 375.4,330.5 	"/>
	<polygon class="st5" points="352.4,390.5 340.8,390.5 335,400.5 340.8,410.5 352.4,410.5 358.1,400.5 	"/>
	<polygon class="st5" points="352.4,330.5 340.8,330.5 335,340.5 340.8,350.5 352.4,350.5 358.1,340.5 	"/>
	<polygon class="st5" points="352.4,310.5 340.8,310.5 335,320.5 340.8,330.5 352.4,330.5 358.1,320.5 	"/>
	<polygon class="st5" points="352.4,290.5 340.8,290.5 335,300.5 340.8,310.5 352.4,310.5 358.1,300.5 	"/>
	<polygon class="st5" points="335.1,400.5 323.5,400.5 317.7,410.5 323.5,420.5 335.1,420.5 340.8,410.5 	"/>
	<polygon class="st5" points="335.1,380.5 323.5,380.5 317.7,390.5 323.5,400.5 335.1,400.5 340.8,390.5 	"/>
	<polygon class="st5" points="335.1,360.5 323.5,360.5 317.7,370.5 323.5,380.5 335.1,380.5 340.8,370.5 	"/>
	<polygon class="st5" points="335.1,340.5 323.5,340.5 317.7,350.5 323.5,360.5 335.1,360.5 340.8,350.5 	"/>
	<polygon class="st5" points="335.1,320.5 323.5,320.5 317.7,330.5 323.5,340.5 335.1,340.5 340.8,330.5 	"/>
	<polygon class="st5" points="335.1,300.5 323.5,300.5 317.7,310.5 323.5,320.5 335.1,320.5 340.8,310.5 	"/>
	<polygon class="st5" points="335.1,280.5 323.5,280.5 317.7,290.5 323.5,300.5 335.1,300.5 340.8,290.5 	"/>
	<polygon class="st5" points="317.8,410.5 306.2,410.5 300.4,420.5 306.2,430.5 317.8,430.5 323.5,420.5 	"/>
	<polygon class="st5" points="317.8,390.5 306.2,390.5 300.4,400.5 306.2,410.5 317.8,410.5 323.5,400.5 	"/>
	<polygon class="st5" points="317.8,370.5 306.2,370.5 300.4,380.5 306.2,390.5 317.8,390.5 323.5,380.5 	"/>
	<polygon class="st5" points="317.8,350.5 306.2,350.5 300.4,360.5 306.2,370.5 317.8,370.5 323.5,360.5 	"/>
	<polygon class="st5" points="317.8,330.5 306.2,330.5 300.4,340.5 306.2,350.5 317.8,350.5 323.5,340.5 	"/>
	<polygon class="st5" points="317.8,310.5 306.2,310.5 300.4,320.5 306.2,330.5 317.8,330.5 323.5,320.5 	"/>
	<polygon class="st5" points="317.8,290.5 306.2,290.5 300.4,300.5 306.2,310.5 317.8,310.5 323.5,300.5 	"/>
	<polygon class="st5" points="317.8,270.5 306.2,270.5 300.4,280.5 306.2,290.5 317.8,290.5 323.5,280.5 	"/>
	<polygon class="st5" points="300.5,280.5 288.9,280.5 283.1,290.5 288.9,300.5 300.5,300.5 306.2,290.5 	"/>
</g>
<g id="Saskatchewan">
	<polygon class="st6" points="300.5,400.5 288.9,400.5 283.1,410.5 288.9,420.5 300.5,420.5 306.2,410.5 	"/>
	<polygon class="st6" points="300.5,380.5 288.9,380.5 283.1,390.5 288.9,400.5 300.5,400.5 306.2,390.5 	"/>
	<polygon class="st6" points="300.5,360.5 288.9,360.5 283.1,370.5 288.9,380.5 300.5,380.5 306.2,370.5 	"/>
	<polygon class="st6" points="300.5,340.5 288.9,340.5 283.1,350.5 288.9,360.5 300.5,360.5 306.2,350.5 	"/>
	<polygon class="st6" points="300.5,320.5 288.9,320.5 283.1,330.5 288.9,340.5 300.5,340.5 306.2,330.5 	"/>
	<polygon class="st6" points="300.5,300.5 288.9,300.5 283.1,310.5 288.9,320.5 300.5,320.5 306.2,310.5 	"/>
	<polygon class="st6" points="283.2,390.5 271.6,390.5 265.8,400.5 271.6,410.5 283.2,410.5 288.9,400.5 	"/>
	<polygon class="st6" points="283.2,370.5 271.6,370.5 265.8,380.5 271.6,390.5 283.2,390.5 288.9,380.5 	"/>
	<polygon class="st6" points="283.2,350.5 271.6,350.5 265.8,360.5 271.6,370.5 283.2,370.5 288.9,360.5 	"/>
	<polygon class="st6" points="283.2,330.5 271.6,330.5 265.8,340.5 271.6,350.5 283.2,350.5 288.9,340.5 	"/>
	<polygon class="st6" points="283.2,310.5 271.6,310.5 265.8,320.5 271.6,330.5 283.2,330.5 288.9,320.5 	"/>
	<polygon class="st6" points="283.2,290.5 271.6,290.5 265.8,300.5 271.6,310.5 283.2,310.5 288.9,300.5 	"/>
	<polygon class="st6" points="265.9,380.5 254.3,380.5 248.5,390.5 254.3,400.5 265.9,400.5 271.6,390.5 	"/>
	<polygon class="st6" points="265.9,360.5 254.3,360.5 248.5,370.5 254.3,380.5 265.9,380.5 271.6,370.5 	"/>
	<polygon class="st6" points="265.9,340.5 254.3,340.5 248.5,350.5 254.3,360.5 265.9,360.5 271.6,350.5 	"/>
	<polygon class="st6" points="265.9,320.5 254.3,320.5 248.5,330.5 254.3,340.5 265.9,340.5 271.6,330.5 	"/>
	<polygon class="st6" points="265.9,300.5 254.3,300.5 248.5,310.5 254.3,320.5 265.9,320.5 271.6,310.5 	"/>
	<polygon class="st6" points="265.9,280.5 254.3,280.5 248.5,290.5 254.3,300.5 265.9,300.5 271.6,290.5 	"/>
	<polygon class="st6" points="248.6,390.5 237,390.5 231.2,400.5 237,410.5 248.6,410.5 254.3,400.5 	"/>
	<polygon class="st6" points="248.6,370.5 237,370.5 231.2,380.5 237,390.5 248.6,390.5 254.3,380.5 	"/>
	<polygon class="st6" points="248.6,350.5 237,350.5 231.2,360.5 237,370.5 248.6,370.5 254.3,360.5 	"/>
	<polygon class="st6" points="248.6,330.5 237,330.5 231.2,340.5 237,350.5 248.6,350.5 254.3,340.5 	"/>
	<polygon class="st6" points="248.6,310.5 237,310.5 231.2,320.5 237,330.5 248.6,330.5 254.3,320.5 	"/>
</g>
<g id="Nunavut">
	<polygon class="st7" points="438.9,200.5 427.3,200.5 421.5,210.5 427.3,220.5 438.9,220.5 444.6,210.5 	"/>
	<polygon class="st7" points="438.9,180.5 427.3,180.5 421.5,190.5 427.3,200.5 438.9,200.5 444.6,190.5 	"/>
	<polygon class="st7" points="438.9,160.5 427.3,160.5 421.5,170.5 427.3,180.5 438.9,180.5 444.6,170.5 	"/>
	<polygon class="st7" points="421.6,210.5 410,210.5 404.2,220.5 410,230.5 421.6,230.5 427.3,220.5 	"/>
	<polygon class="st7" points="421.6,190.5 410,190.5 404.2,200.5 410,210.5 421.6,210.5 427.3,200.5 	"/>
	<polygon class="st7" points="421.6,170.5 410,170.5 404.2,180.5 410,190.5 421.6,190.5 427.3,180.5 	"/>
	<polygon class="st7" points="421.6,150.5 410,150.5 404.2,160.5 410,170.5 421.6,170.5 427.3,160.5 	"/>
	<polygon class="st7" points="404.3,220.5 392.7,220.5 386.9,230.5 392.7,240.5 404.3,240.5 410,230.5 	"/>
	<polygon class="st7" points="404.3,200.5 392.7,200.5 386.9,210.5 392.7,220.5 404.3,220.5 410,210.5 	"/>
	<polygon class="st7" points="404.3,180.5 392.7,180.5 386.9,190.5 392.7,200.5 404.3,200.5 410,190.5 	"/>
	<polygon class="st7" points="404.3,160.5 392.7,160.5 386.9,170.5 392.7,180.5 404.3,180.5 410,170.5 	"/>
	<polygon class="st7" points="404.3,140.5 392.7,140.5 386.9,150.5 392.7,160.5 404.3,160.5 410,150.5 	"/>
	<polygon class="st7" points="387,210.5 375.4,210.5 369.6,220.5 375.4,230.5 387,230.5 392.7,220.5 	"/>
	<polygon class="st7" points="387,190.5 375.4,190.5 369.6,200.5 375.4,210.5 387,210.5 392.7,200.5 	"/>
	<polygon class="st7" points="387,170.5 375.4,170.5 369.6,180.5 375.4,190.5 387,190.5 392.7,180.5 	"/>
	<polygon class="st7" points="387,150.5 375.4,150.5 369.6,160.5 375.4,170.5 387,170.5 392.7,160.5 	"/>
	<polygon class="st7" points="387,130.5 375.4,130.5 369.6,140.5 375.4,150.5 387,150.5 392.7,140.5 	"/>
	<polygon class="st7" points="387,110.5 375.4,110.5 369.6,120.5 375.4,130.5 387,130.5 392.7,120.5 	"/>
	<polygon class="st7" points="387,90.5 375.4,90.5 369.6,100.5 375.4,110.5 387,110.5 392.7,100.5 	"/>
	<polygon class="st7" points="387,70.5 375.4,70.5 369.6,80.5 375.4,90.5 387,90.5 392.7,80.5 	"/>
	<polygon class="st7" points="387,50.5 375.4,50.5 369.6,60.5 375.4,70.5 387,70.5 392.7,60.5 	"/>
	<polygon class="st7" points="369.7,220.5 358.1,220.5 352.3,230.5 358.1,240.5 369.7,240.5 375.4,230.5 	"/>
	<polygon class="st7" points="369.7,200.5 358.1,200.5 352.3,210.5 358.1,220.5 369.7,220.5 375.4,210.5 	"/>
	<polygon class="st7" points="369.7,180.5 358.1,180.5 352.3,190.5 358.1,200.5 369.7,200.5 375.4,190.5 	"/>
	<polygon class="st7" points="369.7,160.5 358.1,160.5 352.3,170.5 358.1,180.5 369.7,180.5 375.4,170.5 	"/>
	<polygon class="st7" points="369.7,140.5 358.1,140.5 352.3,150.5 358.1,160.5 369.7,160.5 375.4,150.5 	"/>
	<polygon class="st7" points="369.7,120.5 358.1,120.5 352.3,130.5 358.1,140.5 369.7,140.5 375.4,130.5 	"/>
	<polygon class="st7" points="369.7,100.5 358.1,100.5 352.3,110.5 358.1,120.5 369.7,120.5 375.4,110.5 	"/>
	<polygon class="st7" points="369.7,80.5 358.1,80.5 352.3,90.5 358.1,100.5 369.7,100.5 375.4,90.5 	"/>
	<polygon class="st7" points="369.7,60.5 358.1,60.5 352.3,70.5 358.1,80.5 369.7,80.5 375.4,70.5 	"/>
	<polygon class="st7" points="369.7,40.5 358.1,40.5 352.3,50.5 358.1,60.5 369.7,60.5 375.4,50.5 	"/>
	<polygon class="st7" points="352.4,250.5 340.8,250.5 335,260.5 340.8,270.5 352.4,270.5 358.1,260.5 	"/>
	<polygon class="st7" points="352.4,230.5 340.8,230.5 335,240.5 340.8,250.5 352.4,250.5 358.1,240.5 	"/>
	<polygon class="st7" points="352.4,210.5 340.8,210.5 335,220.5 340.8,230.5 352.4,230.5 358.1,220.5 	"/>
	<polygon class="st7" points="352.4,190.5 340.8,190.5 335,200.5 340.8,210.5 352.4,210.5 358.1,200.5 	"/>
	<polygon class="st7" points="352.4,170.5 340.8,170.5 335,180.5 340.8,190.5 352.4,190.5 358.1,180.5 	"/>
	<polygon class="st7" points="352.4,150.5 340.8,150.5 335,160.5 340.8,170.5 352.4,170.5 358.1,160.5 	"/>
	<polygon class="st7" points="352.4,130.5 340.8,130.5 335,140.5 340.8,150.5 352.4,150.5 358.1,140.5 	"/>
	<polygon class="st7" points="352.4,110.5 340.8,110.5 335,120.5 340.8,130.5 352.4,130.5 358.1,120.5 	"/>
	<polygon class="st7" points="352.4,90.5 340.8,90.5 335,100.5 340.8,110.5 352.4,110.5 358.1,100.5 	"/>
	<polygon class="st7" points="352.4,70.5 340.8,70.5 335,80.5 340.8,90.5 352.4,90.5 358.1,80.5 	"/>
	<polygon class="st7" points="352.4,50.5 340.8,50.5 335,60.5 340.8,70.5 352.4,70.5 358.1,60.5 	"/>
	<polygon class="st7" points="335.1,260.5 323.5,260.5 317.7,270.5 323.5,280.5 335.1,280.5 340.8,270.5 	"/>
	<polygon class="st7" points="335.1,240.5 323.5,240.5 317.7,250.5 323.5,260.5 335.1,260.5 340.8,250.5 	"/>
	<polygon class="st7" points="335.1,220.5 323.5,220.5 317.7,230.5 323.5,240.5 335.1,240.5 340.8,230.5 	"/>
	<polygon class="st7" points="335.1,200.5 323.5,200.5 317.7,210.5 323.5,220.5 335.1,220.5 340.8,210.5 	"/>
	<polygon class="st7" points="335.1,180.5 323.5,180.5 317.7,190.5 323.5,200.5 335.1,200.5 340.8,190.5 	"/>
	<polygon class="st7" points="335.1,160.5 323.5,160.5 317.7,170.5 323.5,180.5 335.1,180.5 340.8,170.5 	"/>
	<polygon class="st7" points="335.1,140.5 323.5,140.5 317.7,150.5 323.5,160.5 335.1,160.5 340.8,150.5 	"/>
	<polygon class="st7" points="335.1,120.5 323.5,120.5 317.7,130.5 323.5,140.5 335.1,140.5 340.8,130.5 	"/>
	<polygon class="st7" points="335.1,100.5 323.5,100.5 317.7,110.5 323.5,120.5 335.1,120.5 340.8,110.5 	"/>
	<polygon class="st7" points="335.1,80.5 323.5,80.5 317.7,90.5 323.5,100.5 335.1,100.5 340.8,90.5 	"/>
	<polygon class="st7" points="335.1,60.5 323.5,60.5 317.7,70.5 323.5,80.5 335.1,80.5 340.8,70.5 	"/>
	<polygon class="st7" points="317.8,250.5 306.2,250.5 300.4,260.5 306.2,270.5 317.8,270.5 323.5,260.5 	"/>
	<polygon class="st7" points="317.8,230.5 306.2,230.5 300.4,240.5 306.2,250.5 317.8,250.5 323.5,240.5 	"/>
	<polygon class="st7" points="317.8,210.5 306.2,210.5 300.4,220.5 306.2,230.5 317.8,230.5 323.5,220.5 	"/>
	<polygon class="st7" points="317.8,190.5 306.2,190.5 300.4,200.5 306.2,210.5 317.8,210.5 323.5,200.5 	"/>
	<polygon class="st7" points="317.8,170.5 306.2,170.5 300.4,180.5 306.2,190.5 317.8,190.5 323.5,180.5 	"/>
	<polygon class="st7" points="317.8,150.5 306.2,150.5 300.4,160.5 306.2,170.5 317.8,170.5 323.5,160.5 	"/>
	<polygon class="st7" points="317.8,130.5 306.2,130.5 300.4,140.5 306.2,150.5 317.8,150.5 323.5,140.5 	"/>
	<polygon class="st7" points="317.8,110.5 306.2,110.5 300.4,120.5 306.2,130.5 317.8,130.5 323.5,120.5 	"/>
	<polygon class="st7" points="317.8,90.5 306.2,90.5 300.4,100.5 306.2,110.5 317.8,110.5 323.5,100.5 	"/>
	<polygon class="st7" points="317.8,70.5 306.2,70.5 300.4,80.5 306.2,90.5 317.8,90.5 323.5,80.5 	"/>
	<polygon class="st7" points="300.5,220.5 288.9,220.5 283.1,230.5 288.9,240.5 300.5,240.5 306.2,230.5 	"/>
	<polygon class="st7" points="300.5,200.5 288.9,200.5 283.1,210.5 288.9,220.5 300.5,220.5 306.2,210.5 	"/>
	<polygon class="st7" points="300.5,180.5 288.9,180.5 283.1,190.5 288.9,200.5 300.5,200.5 306.2,190.5 	"/>
	<polygon class="st7" points="300.5,160.5 288.9,160.5 283.1,170.5 288.9,180.5 300.5,180.5 306.2,170.5 	"/>
	<polygon class="st7" points="300.5,140.5 288.9,140.5 283.1,150.5 288.9,160.5 300.5,160.5 306.2,150.5 	"/>
	<polygon class="st7" points="300.5,120.5 288.9,120.5 283.1,130.5 288.9,140.5 300.5,140.5 306.2,130.5 	"/>
	<polygon class="st7" points="300.5,100.5 288.9,100.5 283.1,110.5 288.9,120.5 300.5,120.5 306.2,110.5 	"/>
	<polygon class="st7" points="283.2,210.5 271.6,210.5 265.8,220.5 271.6,230.5 283.2,230.5 288.9,220.5 	"/>
	<polygon class="st7" points="283.2,190.5 271.6,190.5 265.8,200.5 271.6,210.5 283.2,210.5 288.9,200.5 	"/>
	<polygon class="st7" points="283.2,170.5 271.6,170.5 265.8,180.5 271.6,190.5 283.2,190.5 288.9,180.5 	"/>
	<polygon class="st7" points="283.2,150.5 271.6,150.5 265.8,160.5 271.6,170.5 283.2,170.5 288.9,160.5 	"/>
	<polygon class="st7" points="283.2,130.5 271.6,130.5 265.8,140.5 271.6,150.5 283.2,150.5 288.9,140.5 	"/>
	<polygon class="st7" points="283.2,110.5 271.6,110.5 265.8,120.5 271.6,130.5 283.2,130.5 288.9,120.5 	"/>
	<polygon class="st7" points="265.9,200.5 254.3,200.5 248.5,210.5 254.3,220.5 265.9,220.5 271.6,210.5 	"/>
	<polygon class="st7" points="265.9,180.5 254.3,180.5 248.5,190.5 254.3,200.5 265.9,200.5 271.6,190.5 	"/>
	<polygon class="st7" points="265.9,160.5 254.3,160.5 248.5,170.5 254.3,180.5 265.9,180.5 271.6,170.5 	"/>
	<polygon class="st7" points="265.9,140.5 254.3,140.5 248.5,150.5 254.3,160.5 265.9,160.5 271.6,150.5 	"/>
	<polygon class="st7" points="265.9,120.5 254.3,120.5 248.5,130.5 254.3,140.5 265.9,140.5 271.6,130.5 	"/>
	<polygon class="st7" points="248.6,170.5 237,170.5 231.2,180.5 237,190.5 248.6,190.5 254.3,180.5 	"/>
	<polygon class="st7" points="248.6,150.5 237,150.5 231.2,160.5 237,170.5 248.6,170.5 254.3,160.5 	"/>
</g>
<g id="Alberta">
	<polygon class="st8" points="248.6,290.5 237,290.5 231.2,300.5 237,310.5 248.6,310.5 254.3,300.5 	"/>
	<polygon class="st8" points="248.6,270.5 237,270.5 231.2,280.5 237,290.5 248.6,290.5 254.3,280.5 	"/>
	<polygon class="st8" points="231.3,380.5 219.7,380.5 213.9,390.5 219.7,400.5 231.3,400.5 237,390.5 	"/>
	<polygon class="st8" points="231.3,360.5 219.7,360.5 213.9,370.5 219.7,380.5 231.3,380.5 237,370.5 	"/>
	<polygon class="st8" points="231.3,340.5 219.7,340.5 213.9,350.5 219.7,360.5 231.3,360.5 237,350.5 	"/>
	<polygon class="st8" points="231.3,320.5 219.7,320.5 213.9,330.5 219.7,340.5 231.3,340.5 237,330.5 	"/>
	<polygon class="st8" points="231.3,300.5 219.7,300.5 213.9,310.5 219.7,320.5 231.3,320.5 237,310.5 	"/>
	<polygon class="st8" points="231.3,280.5 219.7,280.5 213.9,290.5 219.7,300.5 231.3,300.5 237,290.5 	"/>
	<polygon class="st8" points="214,390.5 202.4,390.5 196.6,400.5 202.4,410.5 214,410.5 219.7,400.5 	"/>
	<polygon class="st8" points="214,370.5 202.4,370.5 196.6,380.5 202.4,390.5 214,390.5 219.7,380.5 	"/>
	<polygon class="st8" points="214,350.5 202.4,350.5 196.6,360.5 202.4,370.5 214,370.5 219.7,360.5 	"/>
	<polygon class="st8" points="214,330.5 202.4,330.5 196.6,340.5 202.4,350.5 214,350.5 219.7,340.5 	"/>
	<polygon class="st8" points="214,310.5 202.4,310.5 196.6,320.5 202.4,330.5 214,330.5 219.7,320.5 	"/>
	<polygon class="st8" points="214,290.5 202.4,290.5 196.6,300.5 202.4,310.5 214,310.5 219.7,300.5 	"/>
	<polygon class="st8" points="214,270.5 202.4,270.5 196.6,280.5 202.4,290.5 214,290.5 219.7,280.5 	"/>
</g>
<g id="Northwest_Territories">
	<polygon class="st9" points="300.5,260.5 288.9,260.5 283.1,270.5 288.9,280.5 300.5,280.5 306.2,270.5 	"/>
	<polygon class="st9" points="300.5,240.5 288.9,240.5 283.1,250.5 288.9,260.5 300.5,260.5 306.2,250.5 	"/>
	<polygon class="st9" points="283.2,270.5 271.6,270.5 265.8,280.5 271.6,290.5 283.2,290.5 288.9,280.5 	"/>
	<polygon class="st9" points="283.2,250.5 271.6,250.5 265.8,260.5 271.6,270.5 283.2,270.5 288.9,260.5 	"/>
	<polygon class="st9" points="283.2,230.5 271.6,230.5 265.8,240.5 271.6,250.5 283.2,250.5 288.9,240.5 	"/>
	<polygon class="st9" points="265.9,260.5 254.3,260.5 248.5,270.5 254.3,280.5 265.9,280.5 271.6,270.5 	"/>
	<polygon class="st9" points="265.9,240.5 254.3,240.5 248.5,250.5 254.3,260.5 265.9,260.5 271.6,250.5 	"/>
	<polygon class="st9" points="265.9,220.5 254.3,220.5 248.5,230.5 254.3,240.5 265.9,240.5 271.6,230.5 	"/>
	<polygon class="st9" points="248.6,250.5 237,250.5 231.2,260.5 237,270.5 248.6,270.5 254.3,260.5 	"/>
	<polygon class="st9" points="248.6,230.5 237,230.5 231.2,240.5 237,250.5 248.6,250.5 254.3,240.5 	"/>
	<polygon class="st9" points="248.6,210.5 237,210.5 231.2,220.5 237,230.5 248.6,230.5 254.3,220.5 	"/>
	<polygon class="st9" points="248.6,190.5 237,190.5 231.2,200.5 237,210.5 248.6,210.5 254.3,200.5 	"/>
	<polygon class="st9" points="231.3,260.5 219.7,260.5 213.9,270.5 219.7,280.5 231.3,280.5 237,270.5 	"/>
	<polygon class="st9" points="231.3,240.5 219.7,240.5 213.9,250.5 219.7,260.5 231.3,260.5 237,250.5 	"/>
	<polygon class="st9" points="231.3,220.5 219.7,220.5 213.9,230.5 219.7,240.5 231.3,240.5 237,230.5 	"/>
	<polygon class="st9" points="231.3,200.5 219.7,200.5 213.9,210.5 219.7,220.5 231.3,220.5 237,210.5 	"/>
	<polygon class="st9" points="231.3,180.5 219.7,180.5 213.9,190.5 219.7,200.5 231.3,200.5 237,190.5 	"/>
	<polygon class="st9" points="231.3,160.5 219.7,160.5 213.9,170.5 219.7,180.5 231.3,180.5 237,170.5 	"/>
	<polygon class="st9" points="214,250.5 202.4,250.5 196.6,260.5 202.4,270.5 214,270.5 219.7,260.5 	"/>
	<polygon class="st9" points="214,230.5 202.4,230.5 196.6,240.5 202.4,250.5 214,250.5 219.7,240.5 	"/>
	<polygon class="st9" points="214,210.5 202.4,210.5 196.6,220.5 202.4,230.5 214,230.5 219.7,220.5 	"/>
	<polygon class="st9" points="214,190.5 202.4,190.5 196.6,200.5 202.4,210.5 214,210.5 219.7,200.5 	"/>
	<polygon class="st9" points="214,170.5 202.4,170.5 196.6,180.5 202.4,190.5 214,190.5 219.7,180.5 	"/>
	<polygon class="st9" points="214,150.5 202.4,150.5 196.6,160.5 202.4,170.5 214,170.5 219.7,160.5 	"/>
	<polygon class="st9" points="214,130.5 202.4,130.5 196.6,140.5 202.4,150.5 214,150.5 219.7,140.5 	"/>
	<polygon class="st9" points="196.7,240.5 185.1,240.5 179.3,250.5 185.1,260.5 196.7,260.5 202.4,250.5 	"/>
	<polygon class="st9" points="196.7,220.5 185.1,220.5 179.3,230.5 185.1,240.5 196.7,240.5 202.4,230.5 	"/>
	<polygon class="st9" points="196.7,200.5 185.1,200.5 179.3,210.5 185.1,220.5 196.7,220.5 202.4,210.5 	"/>
	<polygon class="st9" points="196.7,180.5 185.1,180.5 179.3,190.5 185.1,200.5 196.7,200.5 202.4,190.5 	"/>
	<polygon class="st9" points="196.7,160.5 185.1,160.5 179.3,170.5 185.1,180.5 196.7,180.5 202.4,170.5 	"/>
	<polygon class="st9" points="196.7,140.5 185.1,140.5 179.3,150.5 185.1,160.5 196.7,160.5 202.4,150.5 	"/>
</g>
<g id="British_Columbia">
	<polygon class="st10" points="196.7,380.5 185.1,380.5 179.3,390.5 185.1,400.5 196.7,400.5 202.4,390.5 	"/>
	<polygon class="st10" points="196.7,360.5 185.1,360.5 179.3,370.5 185.1,380.5 196.7,380.5 202.4,370.5 	"/>
	<polygon class="st10" points="196.7,340.5 185.1,340.5 179.3,350.5 185.1,360.5 196.7,360.5 202.4,350.5 	"/>
	<polygon class="st10" points="196.7,320.5 185.1,320.5 179.3,330.5 185.1,340.5 196.7,340.5 202.4,330.5 	"/>
	<polygon class="st10" points="196.7,300.5 185.1,300.5 179.3,310.5 185.1,320.5 196.7,320.5 202.4,310.5 	"/>
	<polygon class="st10" points="196.7,280.5 185.1,280.5 179.3,290.5 185.1,300.5 196.7,300.5 202.4,290.5 	"/>
	<polygon class="st10" points="196.7,260.5 185.1,260.5 179.3,270.5 185.1,280.5 196.7,280.5 202.4,270.5 	"/>
	<polygon class="st10" points="179.4,370.5 167.8,370.5 162,380.5 167.8,390.5 179.4,390.5 185.1,380.5 	"/>
	<polygon class="st10" points="179.4,350.5 167.8,350.5 162,360.5 167.8,370.5 179.4,370.5 185.1,360.5 	"/>
	<polygon class="st10" points="179.4,330.5 167.8,330.5 162,340.5 167.8,350.5 179.4,350.5 185.1,340.5 	"/>
	<polygon class="st10" points="179.4,310.5 167.8,310.5 162,320.5 167.8,330.5 179.4,330.5 185.1,320.5 	"/>
	<polygon class="st10" points="179.4,290.5 167.8,290.5 162,300.5 167.8,310.5 179.4,310.5 185.1,300.5 	"/>
	<polygon class="st10" points="179.4,270.5 167.8,270.5 162,280.5 167.8,290.5 179.4,290.5 185.1,280.5 	"/>
	<polygon class="st10" points="179.4,250.5 167.8,250.5 162,260.5 167.8,270.5 179.4,270.5 185.1,260.5 	"/>
	<polygon class="st10" points="162.1,360.5 150.5,360.5 144.7,370.5 150.5,380.5 162.1,380.5 167.8,370.5 	"/>
	<polygon class="st10" points="162.1,340.5 150.5,340.5 144.7,350.5 150.5,360.5 162.1,360.5 167.8,350.5 	"/>
	<polygon class="st10" points="162.1,320.5 150.5,320.5 144.7,330.5 150.5,340.5 162.1,340.5 167.8,330.5 	"/>
	<polygon class="st10" points="162.1,300.5 150.5,300.5 144.7,310.5 150.5,320.5 162.1,320.5 167.8,310.5 	"/>
	<polygon class="st10" points="162.1,280.5 150.5,280.5 144.7,290.5 150.5,300.5 162.1,300.5 167.8,290.5 	"/>
	<polygon class="st10" points="162.1,260.5 150.5,260.5 144.7,270.5 150.5,280.5 162.1,280.5 167.8,270.5 	"/>
	<polygon class="st10" points="162.1,240.5 150.5,240.5 144.7,250.5 150.5,260.5 162.1,260.5 167.8,250.5 	"/>
	<polygon class="st10" points="144.8,350.5 133.2,350.5 127.4,360.5 133.2,370.5 144.8,370.5 150.5,360.5 	"/>
	<polygon class="st10" points="144.8,330.5 133.2,330.5 127.4,340.5 133.2,350.5 144.8,350.5 150.5,340.5 	"/>
	<polygon class="st10" points="144.8,310.5 133.2,310.5 127.4,320.5 133.2,330.5 144.8,330.5 150.5,320.5 	"/>
	<polygon class="st10" points="144.8,290.5 133.2,290.5 127.4,300.5 133.2,310.5 144.8,310.5 150.5,300.5 	"/>
	<polygon class="st10" points="144.8,270.5 133.2,270.5 127.4,280.5 133.2,290.5 144.8,290.5 150.5,280.5 	"/>
	<polygon class="st10" points="144.8,250.5 133.2,250.5 127.4,260.5 133.2,270.5 144.8,270.5 150.5,260.5 	"/>
	<polygon class="st10" points="144.8,230.5 133.2,230.5 127.4,240.5 133.2,250.5 144.8,250.5 150.5,240.5 	"/>
	<polygon class="st10" points="127.5,360.5 115.9,360.5 110.1,370.5 115.9,380.5 127.5,380.5 133.2,370.5 	"/>
	<polygon class="st10" points="127.5,340.5 115.9,340.5 110.1,350.5 115.9,360.5 127.5,360.5 133.2,350.5 	"/>
	<polygon class="st10" points="127.5,320.5 115.9,320.5 110.1,330.5 115.9,340.5 127.5,340.5 133.2,330.5 	"/>
	<polygon class="st10" points="127.5,300.5 115.9,300.5 110.1,310.5 115.9,320.5 127.5,320.5 133.2,310.5 	"/>
	<polygon class="st10" points="127.5,280.5 115.9,280.5 110.1,290.5 115.9,300.5 127.5,300.5 133.2,290.5 	"/>
	<polygon class="st10" points="127.5,260.5 115.9,260.5 110.1,270.5 115.9,280.5 127.5,280.5 133.2,270.5 	"/>
	<polygon class="st10" points="127.5,240.5 115.9,240.5 110.1,250.5 115.9,260.5 127.5,260.5 133.2,250.5 	"/>
	<polygon class="st10" points="110.2,330.5 98.6,330.5 92.8,340.5 98.6,350.5 110.2,350.5 115.9,340.5 	"/>
	<polygon class="st10" points="110.2,310.5 98.6,310.5 92.8,320.5 98.6,330.5 110.2,330.5 115.9,320.5 	"/>
</g>
<g id="Yukon">
	<polygon class="st11" points="179.4,230.5 167.8,230.5 162,240.5 167.8,250.5 179.4,250.5 185.1,240.5 	"/>
	<polygon class="st11" points="179.4,210.5 167.8,210.5 162,220.5 167.8,230.5 179.4,230.5 185.1,220.5 	"/>
	<polygon class="st11" points="179.4,190.5 167.8,190.5 162,200.5 167.8,210.5 179.4,210.5 185.1,200.5 	"/>
	<polygon class="st11" points="179.4,170.5 167.8,170.5 162,180.5 167.8,190.5 179.4,190.5 185.1,180.5 	"/>
	<polygon class="st11" points="179.4,150.5 167.8,150.5 162,160.5 167.8,170.5 179.4,170.5 185.1,160.5 	"/>
	<polygon class="st11" points="179.4,130.5 167.8,130.5 162,140.5 167.8,150.5 179.4,150.5 185.1,140.5 	"/>
	<polygon class="st11" points="162.1,220.5 150.5,220.5 144.7,230.5 150.5,240.5 162.1,240.5 167.8,230.5 	"/>
	<polygon class="st11" points="162.1,200.5 150.5,200.5 144.7,210.5 150.5,220.5 162.1,220.5 167.8,210.5 	"/>
	<polygon class="st11" points="162.1,180.5 150.5,180.5 144.7,190.5 150.5,200.5 162.1,200.5 167.8,190.5 	"/>
	<polygon class="st11" points="162.1,160.5 150.5,160.5 144.7,170.5 150.5,180.5 162.1,180.5 167.8,170.5 	"/>
	<polygon class="st11" points="162.1,140.5 150.5,140.5 144.7,150.5 150.5,160.5 162.1,160.5 167.8,150.5 	"/>
	<polygon class="st11" points="144.8,210.5 133.2,210.5 127.4,220.5 133.2,230.5 144.8,230.5 150.5,220.5 	"/>
	<polygon class="st11" points="144.8,190.5 133.2,190.5 127.4,200.5 133.2,210.5 144.8,210.5 150.5,200.5 	"/>
	<polygon class="st11" points="144.8,170.5 133.2,170.5 127.4,180.5 133.2,190.5 144.8,190.5 150.5,180.5 	"/>
	<polygon class="st11" points="144.8,150.5 133.2,150.5 127.4,160.5 133.2,170.5 144.8,170.5 150.5,160.5 	"/>
	<polygon class="st11" points="127.5,200.5 115.9,200.5 110.1,210.5 115.9,220.5 127.5,220.5 133.2,210.5 	"/>
	<polygon class="st11" points="127.5,180.5 115.9,180.5 110.1,190.5 115.9,200.5 127.5,200.5 133.2,190.5 	"/>
	<polygon class="st11" points="127.5,160.5 115.9,160.5 110.1,170.5 115.9,180.5 127.5,180.5 133.2,170.5 	"/>
	<polygon class="st11" points="110.2,190.5 98.6,190.5 92.8,200.5 98.6,210.5 110.2,210.5 115.9,200.5 	"/>
</g>
</svg>
