<?xml version="1.0" encoding="utf-8"?>
<!-- Generator: Adobe Illustrator 22.1.0, SVG Export Plug-In . SVG Version: 6.00 Build 0)  -->
<svg version="1.1" id="Layer_1" xmlns="http://www.w3.org/2000/svg" xmlns:xlink="http://www.w3.org/1999/xlink" x="0px" y="0px"
	 viewBox="0 0 700 400" style="enable-background:new 0 0 700 400;" xml:space="preserve">
<style type="text/css">
	.st0{opacity:0.75;}
	.st1{fill:#D9A9FC;}
	.st2{fill:#1E1E1E;}
	.st3{fill:#FFB0BB;}
	.st4{fill:#ACE8F9;}
	.st5{fill:#F2ECC4;}
	.st6{fill:#A0E8AE;}
</style>
<g id="Virginia">
	<g class="st0">
		<polygon class="st1" points="567.6,119.8 553.9,96 567.6,72.2 595,72.2 608.7,96 595,119.8 		"/>
		<path class="st2" d="M594.8,72.5L608.4,96l-13.6,23.5h-27.1L554.1,96l13.6-23.5H594.8 M595.1,72h-27.7l-13.9,24l13.9,24h27.7
			L609,96L595.1,72L595.1,72z"/>
	</g>
	<g class="st0">
		<polygon class="st1" points="567.6,71.8 553.9,48 567.6,24.2 595,24.2 608.7,48 595,71.8 		"/>
		<path class="st2" d="M594.8,24.5L608.4,48l-13.6,23.5h-27.1L554.1,48l13.6-23.5H594.8 M595.1,24h-27.7l-13.9,24l13.9,24h27.7
			L609,48L595.1,24L595.1,24z"/>
	</g>
	<g class="st0">
		<polygon class="st1" points="526,143.8 512.3,120 526,96.2 553.5,96.2 567.2,120 553.5,143.8 		"/>
		<path class="st2" d="M553.3,96.5l13.6,23.5l-13.6,23.5h-27.1L512.6,120l13.6-23.5H553.3 M553.6,96h-27.7L512,120l13.9,24h27.7
			l13.9-24L553.6,96L553.6,96z"/>
	</g>
	<g class="st0">
		<polygon class="st1" points="526,95.8 512.3,72 526,48.2 553.5,48.2 567.2,72 553.5,95.8 		"/>
		<path class="st2" d="M553.3,48.5L566.9,72l-13.6,23.5h-27.1L512.6,72l13.6-23.5H553.3 M553.6,48h-27.7L512,72l13.9,24h27.7
			l13.9-24L553.6,48L553.6,48z"/>
	</g>
	<g class="st0">
		<polygon class="st1" points="484.5,167.8 470.8,144 484.5,120.2 512,120.2 525.7,144 512,167.8 		"/>
		<path class="st2" d="M511.8,120.5l13.6,23.5l-13.6,23.5h-27.1L471.1,144l13.6-23.5H511.8 M512.1,120h-27.7l-13.9,24l13.9,24h27.7
			l13.9-24L512.1,120L512.1,120z"/>
	</g>
	<g class="st0">
		<polygon class="st1" points="484.5,119.8 470.8,96 484.5,72.2 512,72.2 525.7,96 512,119.8 		"/>
		<path class="st2" d="M511.8,72.5L525.4,96l-13.6,23.5h-27.1L471.1,96l13.6-23.5H511.8 M512.1,72h-27.7l-13.9,24l13.9,24h27.7
			L526,96L512.1,72L512.1,72z"/>
	</g>
	<g class="st0">
		<polygon class="st1" points="484.5,71.8 470.8,48 484.5,24.2 512,24.2 525.7,48 512,71.8 		"/>
		<path class="st2" d="M511.8,24.5L525.4,48l-13.6,23.5h-27.1L471.1,48l13.6-23.5H511.8 M512.1,24h-27.7l-13.9,24l13.9,24h27.7
			L526,48L512.1,24L512.1,24z"/>
	</g>
	<g class="st0">
		<polygon class="st1" points="443,143.8 429.3,120 443,96.2 470.4,96.2 484.1,120 470.4,143.8 		"/>
		<path class="st2" d="M470.3,96.5l13.6,23.5l-13.6,23.5h-27.1L429.6,120l13.6-23.5H470.3 M470.6,96h-27.7L429,120l13.9,24h27.7
			l13.9-24L470.6,96L470.6,96z"/>
	</g>
</g>
<g id="Florida">
	<g class="st0">
		<polygon class="st3" points="484.5,311.8 470.8,288 484.5,264.2 512,264.2 525.7,288 512,311.8 		"/>
		<path class="st2" d="M511.8,264.5l13.6,23.5l-13.6,23.5h-27.1L471.1,288l13.6-23.5H511.8 M512.1,264h-27.7l-13.9,24l13.9,24h27.7
			l13.9-24L512.1,264L512.1,264z"/>
	</g>
	<g class="st0">
		<polygon class="st3" points="484.5,263.8 470.8,240 484.5,216.2 512,216.2 525.7,240 512,263.8 		"/>
		<path class="st2" d="M511.8,216.5l13.6,23.5l-13.6,23.5h-27.1L471.1,240l13.6-23.5H511.8 M512.1,216h-27.7l-13.9,24l13.9,24h27.7
			l13.9-24L512.1,216L512.1,216z"/>
	</g>
	<g class="st0">
		<polygon class="st3" points="484.5,215.8 470.8,192 484.5,168.2 512,168.2 525.7,192 512,215.8 		"/>
		<path class="st2" d="M511.8,168.5l13.6,23.5l-13.6,23.5h-27.1L471.1,192l13.6-23.5H511.8 M512.1,168h-27.7l-13.9,24l13.9,24h27.7
			l13.9-24L512.1,168L512.1,168z"/>
	</g>
	<g class="st0">
		<polygon class="st3" points="443,335.8 429.3,312 443,288.2 470.4,288.2 484.1,312 470.4,335.8 		"/>
		<path class="st2" d="M470.3,288.5l13.6,23.5l-13.6,23.5h-27.1L429.6,312l13.6-23.5H470.3 M470.6,288h-27.7L429,312l13.9,24h27.7
			l13.9-24L470.6,288L470.6,288z"/>
	</g>
	<g class="st0">
		<polygon class="st3" points="443,287.8 429.3,264 443,240.2 470.4,240.2 484.1,264 470.4,287.8 		"/>
		<path class="st2" d="M470.3,240.5l13.6,23.5l-13.6,23.5h-27.1L429.6,264l13.6-23.5H470.3 M470.6,240h-27.7L429,264l13.9,24h27.7
			l13.9-24L470.6,240L470.6,240z"/>
	</g>
	<g class="st0">
		<polygon class="st3" points="443,239.8 429.3,216 443,192.2 470.4,192.2 484.1,216 470.4,239.8 		"/>
		<path class="st2" d="M470.3,192.5l13.6,23.5l-13.6,23.5h-27.1L429.6,216l13.6-23.5H470.3 M470.6,192h-27.7L429,216l13.9,24h27.7
			l13.9-24L470.6,192L470.6,192z"/>
	</g>
	<g class="st0">
		<polygon class="st3" points="401.5,311.8 387.8,288 401.5,264.2 428.9,264.2 442.6,288 428.9,311.8 		"/>
		<path class="st2" d="M428.8,264.5l13.6,23.5l-13.6,23.5h-27.1L388.1,288l13.6-23.5H428.8 M429.1,264h-27.7l-13.9,24l13.9,24h27.7
			l13.9-24L429.1,264L429.1,264z"/>
	</g>
	<g class="st0">
		<polygon class="st3" points="401.5,263.8 387.8,240 401.5,216.2 428.9,216.2 442.6,240 428.9,263.8 		"/>
		<path class="st2" d="M428.8,216.5l13.6,23.5l-13.6,23.5h-27.1L388.1,240l13.6-23.5H428.8 M429.1,216h-27.7l-13.9,24l13.9,24h27.7
			l13.9-24L429.1,216L429.1,216z"/>
	</g>
	<g class="st0">
		<polygon class="st3" points="360,287.8 346.3,264 360,240.2 387.4,240.2 401.1,264 387.4,287.8 		"/>
		<path class="st2" d="M387.2,240.5l13.6,23.5l-13.6,23.5h-27.1L346.5,264l13.6-23.5H387.2 M387.5,240h-27.7L346,264l13.9,24h27.7
			l13.9-24L387.5,240L387.5,240z"/>
	</g>
	<g class="st0">
		<polygon class="st3" points="360,239.8 346.3,216 360,192.2 387.4,192.2 401.1,216 387.4,239.8 		"/>
		<path class="st2" d="M387.2,192.5l13.6,23.5l-13.6,23.5h-27.1L346.5,216l13.6-23.5H387.2 M387.5,192h-27.7L346,216l13.9,24h27.7
			l13.9-24L387.5,192L387.5,192z"/>
	</g>
</g>
<g id="Iowa">
	<g class="st0">
		<polygon class="st4" points="443,191.8 429.3,168 443,144.2 470.4,144.2 484.1,168 470.4,191.8 		"/>
		<path class="st2" d="M470.3,144.5l13.6,23.5l-13.6,23.5h-27.1L429.6,168l13.6-23.5H470.3 M470.6,144h-27.7L429,168l13.9,24h27.7
			l13.9-24L470.6,144L470.6,144z"/>
	</g>
	<g class="st0">
		<polygon class="st4" points="401.5,215.8 387.8,192 401.5,168.2 428.9,168.2 442.6,192 428.9,215.8 		"/>
		<path class="st2" d="M428.8,168.5l13.6,23.5l-13.6,23.5h-27.1L388.1,192l13.6-23.5H428.8 M429.1,168h-27.7l-13.9,24l13.9,24h27.7
			l13.9-24L429.1,168L429.1,168z"/>
	</g>
	<g class="st0">
		<polygon class="st4" points="401.5,167.8 387.8,144 401.5,120.2 428.9,120.2 442.6,144 428.9,167.8 		"/>
		<path class="st2" d="M428.8,120.5l13.6,23.5l-13.6,23.5h-27.1L388.1,144l13.6-23.5H428.8 M429.1,120h-27.7l-13.9,24l13.9,24h27.7
			l13.9-24L429.1,120L429.1,120z"/>
	</g>
	<g class="st0">
		<polygon class="st4" points="360,191.8 346.3,168 360,144.2 387.4,144.2 401.1,168 387.4,191.8 		"/>
		<path class="st2" d="M387.2,144.5l13.6,23.5l-13.6,23.5h-27.1L346.5,168l13.6-23.5H387.2 M387.5,144h-27.7L346,168l13.9,24h27.7
			l13.9-24L387.5,144L387.5,144z"/>
	</g>
	<g class="st0">
		<polygon class="st4" points="360,143.8 346.3,120 360,96.2 387.4,96.2 401.1,120 387.4,143.8 		"/>
		<path class="st2" d="M387.2,96.5l13.6,23.5l-13.6,23.5h-27.1L346.5,120l13.6-23.5H387.2 M387.5,96h-27.7L346,120l13.9,24h27.7
			l13.9-24L387.5,96L387.5,96z"/>
	</g>
	<g class="st0">
		<polygon class="st4" points="318.4,167.8 304.7,144 318.4,120.2 345.9,120.2 359.6,144 345.9,167.8 		"/>
		<path class="st2" d="M345.7,120.5l13.6,23.5l-13.6,23.5h-27.1L305,144l13.6-23.5H345.7 M346,120h-27.7l-13.9,24l13.9,24H346
			l13.9-24L346,120L346,120z"/>
	</g>
	<g class="st0">
		<polygon class="st4" points="318.4,119.8 304.7,96 318.4,72.2 345.9,72.2 359.6,96 345.9,119.8 		"/>
		<path class="st2" d="M345.7,72.5L359.3,96l-13.6,23.5h-27.1L305,96l13.6-23.5H345.7 M346,72h-27.7l-13.9,24l13.9,24H346l13.9-24
			L346,72L346,72z"/>
	</g>
	<g class="st0">
		<polygon class="st4" points="276.9,95.8 263.2,72 276.9,48.2 304.4,48.2 318.1,72 304.4,95.8 		"/>
		<path class="st2" d="M304.2,48.5L317.8,72l-13.6,23.5h-27.1L263.5,72l13.6-23.5H304.2 M304.5,48h-27.7l-13.9,24l13.9,24h27.7
			l13.9-24L304.5,48L304.5,48z"/>
	</g>
</g>
<g id="Oklahoma">
	<g class="st0">
		<polygon class="st5" points="318.4,215.8 304.7,192 318.4,168.2 345.9,168.2 359.6,192 345.9,215.8 		"/>
		<path class="st2" d="M345.7,168.5l13.6,23.5l-13.6,23.5h-27.1L305,192l13.6-23.5H345.7 M346,168h-27.7l-13.9,24l13.9,24H346
			l13.9-24L346,168L346,168z"/>
	</g>
	<g class="st0">
		<polygon class="st5" points="276.9,239.8 263.2,216 276.9,192.2 304.4,192.2 318.1,216 304.4,239.8 		"/>
		<path class="st2" d="M304.2,192.5l13.6,23.5l-13.6,23.5h-27.1L263.5,216l13.6-23.5H304.2 M304.5,192h-27.7l-13.9,24l13.9,24h27.7
			l13.9-24L304.5,192L304.5,192z"/>
	</g>
	<g class="st0">
		<polygon class="st5" points="276.9,191.8 263.2,168 276.9,144.2 304.4,144.2 318.1,168 304.4,191.8 		"/>
		<path class="st2" d="M304.2,144.5l13.6,23.5l-13.6,23.5h-27.1L263.5,168l13.6-23.5H304.2 M304.5,144h-27.7l-13.9,24l13.9,24h27.7
			l13.9-24L304.5,144L304.5,144z"/>
	</g>
	<g class="st0">
		<polygon class="st5" points="235.4,215.8 221.7,192 235.4,168.2 262.8,168.2 276.5,192 262.8,215.8 		"/>
		<path class="st2" d="M262.7,168.5l13.6,23.5l-13.6,23.5h-27.1L222,192l13.6-23.5H262.7 M263,168h-27.7l-13.9,24l13.9,24H263
			l13.9-24L263,168L263,168z"/>
	</g>
	<g class="st0">
		<polygon class="st5" points="193.9,239.8 180.2,216 193.9,192.2 221.3,192.2 235,216 221.3,239.8 		"/>
		<path class="st2" d="M221.2,192.5l13.6,23.5l-13.6,23.5H194L180.5,216l13.6-23.5H221.2 M221.5,192h-27.7l-13.9,24l13.9,24h27.7
			l13.9-24L221.5,192L221.5,192z"/>
	</g>
	<g class="st0">
		<polygon class="st5" points="193.9,191.8 180.2,168 193.9,144.2 221.3,144.2 235,168 221.3,191.8 		"/>
		<path class="st2" d="M221.2,144.5l13.6,23.5l-13.6,23.5H194L180.5,168l13.6-23.5H221.2 M221.5,144h-27.7l-13.9,24l13.9,24h27.7
			l13.9-24L221.5,144L221.5,144z"/>
	</g>
	<g class="st0">
		<polygon class="st5" points="152.4,215.8 138.7,192 152.4,168.2 179.8,168.2 193.5,192 179.8,215.8 		"/>
		<path class="st2" d="M179.6,168.5l13.6,23.5l-13.6,23.5h-27.1L138.9,192l13.6-23.5H179.6 M179.9,168h-27.7l-13.9,24l13.9,24h27.7
			l13.9-24L179.9,168L179.9,168z"/>
	</g>
	<g class="st0">
		<polygon class="st5" points="152.4,167.8 138.7,144 152.4,120.2 179.8,120.2 193.5,144 179.8,167.8 		"/>
		<path class="st2" d="M179.6,120.5l13.6,23.5l-13.6,23.5h-27.1L138.9,144l13.6-23.5H179.6 M179.9,120h-27.7l-13.9,24l13.9,24h27.7
			l13.9-24L179.9,120L179.9,120z"/>
	</g>
	<g class="st0">
		<polygon class="st5" points="110.8,191.8 97.1,168 110.8,144.2 138.3,144.2 152,168 138.3,191.8 		"/>
		<path class="st2" d="M138.1,144.5l13.6,23.5l-13.6,23.5H111L97.4,168l13.6-23.5H138.1 M138.4,144h-27.7l-13.9,24l13.9,24h27.7
			l13.9-24L138.4,144L138.4,144z"/>
	</g>
</g>
<g id="California">
	<g class="st0">
		<polygon class="st6" points="276.9,143.8 263.2,120 276.9,96.2 304.4,96.2 318.1,120 304.4,143.8 		"/>
		<path class="st2" d="M304.2,96.5l13.6,23.5l-13.6,23.5h-27.1L263.5,120l13.6-23.5H304.2 M304.5,96h-27.7l-13.9,24l13.9,24h27.7
			l13.9-24L304.5,96L304.5,96z"/>
	</g>
	<g class="st0">
		<polygon class="st6" points="235.4,167.8 221.7,144 235.4,120.2 262.8,120.2 276.5,144 262.8,167.8 		"/>
		<path class="st2" d="M262.7,120.5l13.6,23.5l-13.6,23.5h-27.1L222,144l13.6-23.5H262.7 M263,120h-27.7l-13.9,24l13.9,24H263
			l13.9-24L263,120L263,120z"/>
	</g>
	<g class="st0">
		<polygon class="st6" points="235.4,119.8 221.7,96 235.4,72.2 262.8,72.2 276.5,96 262.8,119.8 		"/>
		<path class="st2" d="M262.7,72.5L276.3,96l-13.6,23.5h-27.1L222,96l13.6-23.5H262.7 M263,72h-27.7l-13.9,24l13.9,24H263l13.9-24
			L263,72L263,72z"/>
	</g>
	<g class="st0">
		<polygon class="st6" points="235.4,71.8 221.7,48 235.4,24.2 262.8,24.2 276.5,48 262.8,71.8 		"/>
		<path class="st2" d="M262.7,24.5L276.3,48l-13.6,23.5h-27.1L222,48l13.6-23.5H262.7 M263,24h-27.7l-13.9,24l13.9,24H263l13.9-24
			L263,24L263,24z"/>
	</g>
	<g class="st0">
		<polygon class="st6" points="193.9,143.8 180.2,120 193.9,96.2 221.3,96.2 235,120 221.3,143.8 		"/>
		<path class="st2" d="M221.2,96.5l13.6,23.5l-13.6,23.5H194L180.5,120L194,96.5H221.2 M221.5,96h-27.7l-13.9,24l13.9,24h27.7
			l13.9-24L221.5,96L221.5,96z"/>
	</g>
	<g class="st0">
		<polygon class="st6" points="193.9,95.8 180.2,72 193.9,48.2 221.3,48.2 235,72 221.3,95.8 		"/>
		<path class="st2" d="M221.2,48.5L234.7,72l-13.6,23.5H194L180.5,72L194,48.5H221.2 M221.5,48h-27.7l-13.9,24l13.9,24h27.7l13.9-24
			L221.5,48L221.5,48z"/>
	</g>
	<g class="st0">
		<polygon class="st6" points="152.4,119.8 138.7,96 152.4,72.2 179.8,72.2 193.5,96 179.8,119.8 		"/>
		<path class="st2" d="M179.6,72.5L193.2,96l-13.6,23.5h-27.1L138.9,96l13.6-23.5H179.6 M179.9,72h-27.7l-13.9,24l13.9,24h27.7
			l13.9-24L179.9,72L179.9,72z"/>
	</g>
	<g class="st0">
		<polygon class="st6" points="152.4,71.8 138.7,48 152.4,24.2 179.8,24.2 193.5,48 179.8,71.8 		"/>
		<path class="st2" d="M179.6,24.5L193.2,48l-13.6,23.5h-27.1L138.9,48l13.6-23.5H179.6 M179.9,24h-27.7l-13.9,24l13.9,24h27.7
			l13.9-24L179.9,24L179.9,24z"/>
	</g>
	<g class="st0">
		<polygon class="st6" points="110.8,143.8 97.1,120 110.8,96.2 138.3,96.2 152,120 138.3,143.8 		"/>
		<path class="st2" d="M138.1,96.5l13.6,23.5l-13.6,23.5H111L97.4,120L111,96.5H138.1 M138.4,96h-27.7l-13.9,24l13.9,24h27.7
			l13.9-24L138.4,96L138.4,96z"/>
	</g>
</g>
</svg>
